<svg width="25" height="24" viewBox="0 0 25 24" fill="none" xmlns="http://www.w3.org/2000/svg">
<g clip-path="url(#clip0_22_182)">
<path d="M12.3046 16.9912L14.1872 15.1087C14.6219 14.674 14.6219 13.9692 14.1872 13.5346L12.9786 12.326C12.5439 11.8913 11.8392 11.8913 11.4045 12.326L9.52197 14.2085M12.3046 16.9912L8.29584 21H5.51318V18.2173L9.52197 14.2085M12.3046 16.9912L9.52197 14.2085M13.5132 3H9.51318C7.30404 3 5.51318 4.79086 5.51318 7V12M13.5132 3L19.5132 9M13.5132 3V7C13.5132 8.10457 14.4086 9 15.5132 9H19.5132M19.5132 9V17C19.5132 19.2091 17.7223 21 15.5132 21H13.5132" stroke="#F9F5F6" stroke-width="2" stroke-linecap="round" stroke-linejoin="round"/>
</g>
<defs>
<clipPath id="clip0_22_182">
<rect width="31" height="31" fill="white" transform="translate(-3.48682 -3)"/>
</clipPath>
</defs>
</svg>
