<svg width="25" height="24" viewBox="0 0 25 24" fill="none" xmlns="http://www.w3.org/2000/svg">
<g clip-path="url(#clip0_22_185)">
<g clip-path="url(#clip1_22_185)">
<path d="M14.8809 18V19C14.8809 20.1046 13.9854 21 12.8809 21C11.7763 21 10.8809 20.1046 10.8809 19V18M12.8809 5V3M12.8809 5C15.6423 5 17.8809 7.23858 17.8809 10V15H18.3809C19.2093 15 19.8809 15.6716 19.8809 16.5C19.8809 17.3284 19.2093 18 18.3809 18H7.38086C6.55243 18 5.88086 17.3284 5.88086 16.5C5.88086 15.6716 6.55243 15 7.38086 15H7.88086V10C7.88086 7.23858 10.1194 5 12.8809 5Z" stroke="#F9F5F6" stroke-width="2" stroke-linecap="round" stroke-linejoin="round"/>
</g>
</g>
<defs>
<clipPath id="clip0_22_185">
<rect width="24" height="24" fill="white" transform="translate(0.632324)"/>
</clipPath>
<clipPath id="clip1_22_185">
<rect width="24" height="24" fill="white" transform="translate(0.880859)"/>
</clipPath>
</defs>
</svg>
