<svg width="24" height="24" viewBox="0 0 24 24" fill="none" xmlns="http://www.w3.org/2000/svg">
<g clip-path="url(#clip0_22_190)">
<path d="M5.66179 17.625C6.70542 16.8917 7.74078 16.3292 8.76785 15.9375C9.79492 15.5458 10.8965 15.35 12.0727 15.35C13.2489 15.35 14.3546 15.5458 15.39 15.9375C16.4253 16.3292 17.4648 16.8917 18.5085 17.625C19.2373 16.725 19.755 15.8167 20.0615 14.9C20.3679 13.9833 20.5212 13.0167 20.5212 12C20.5212 9.58333 19.7136 7.5625 18.0985 5.9375C16.4833 4.3125 14.4747 3.5 12.0727 3.5C9.67067 3.5 7.66209 4.3125 6.04694 5.9375C4.43179 7.5625 3.62421 9.58333 3.62421 12C3.62421 13.0167 3.78158 13.9833 4.09633 14.9C4.41108 15.8167 4.9329 16.725 5.66179 17.625ZM12.0681 12.75C11.1103 12.75 10.3043 12.4193 9.64997 11.7579C8.99562 11.0964 8.66845 10.2839 8.66845 9.32035C8.66845 8.35678 8.99716 7.54583 9.65459 6.8875C10.312 6.22917 11.1196 5.9 12.0773 5.9C13.035 5.9 13.8411 6.23072 14.4954 6.89215C15.1498 7.55358 15.4769 8.36608 15.4769 9.32965C15.4769 10.2932 15.1482 11.1042 14.4908 11.7625C13.8334 12.4208 13.0258 12.75 12.0681 12.75ZM12.0843 22C10.7182 22 9.43047 21.7375 8.22118 21.2125C7.01189 20.6875 5.95583 19.9708 5.053 19.0625C4.15017 18.1542 3.43785 17.0936 2.91603 15.8809C2.39421 14.6681 2.1333 13.3723 2.1333 11.9934C2.1333 10.6145 2.39421 9.32083 2.91603 8.1125C3.43785 6.90417 4.15017 5.84583 5.053 4.9375C5.95583 4.02917 7.00995 3.3125 8.21536 2.7875C9.42078 2.2625 10.7088 2 12.0793 2C13.4498 2 14.7356 2.2625 15.9366 2.7875C17.1376 3.3125 18.1896 4.02917 19.0924 4.9375C19.9952 5.84583 20.7075 6.90443 21.2294 8.1133C21.7512 9.32217 22.0121 10.6138 22.0121 11.9883C22.0121 13.3628 21.7512 14.6583 21.2294 15.875C20.7075 17.0917 19.9952 18.1542 19.0924 19.0625C18.1896 19.9708 17.1374 20.6875 15.9358 21.2125C14.7343 21.7375 13.4505 22 12.0843 22ZM12.0727 20.5C12.9838 20.5 13.8742 20.3667 14.7439 20.1C15.6136 19.8333 16.4709 19.3667 17.3157 18.7C16.4709 18.1 15.6095 17.6417 14.7315 17.325C13.8535 17.0083 12.9672 16.85 12.0727 16.85C11.1781 16.85 10.2919 17.0083 9.41391 17.325C8.53593 17.6417 7.67451 18.1 6.82966 18.7C7.67451 19.3667 8.53179 19.8333 9.40148 20.1C10.2712 20.3667 11.1616 20.5 12.0727 20.5ZM12.0727 11.25C12.6359 11.25 13.0956 11.0708 13.4518 10.7125C13.8079 10.3542 13.986 9.89167 13.986 9.325C13.986 8.75833 13.8079 8.29583 13.4518 7.9375C13.0956 7.57917 12.6359 7.4 12.0727 7.4C11.5095 7.4 11.0498 7.57917 10.6936 7.9375C10.3374 8.29583 10.1594 8.75833 10.1594 9.325C10.1594 9.89167 10.3374 10.3542 10.6936 10.7125C11.0498 11.0708 11.5095 11.25 12.0727 11.25Z" fill="#F9F5F6"/>
</g>
<defs>
<clipPath id="clip0_22_190">
<rect width="23.8545" height="24" fill="white" transform="translate(0.145508)"/>
</clipPath>
</defs>
</svg>
