<svg width="24" height="26" viewBox="0 0 24 26" fill="none" xmlns="http://www.w3.org/2000/svg">
<path d="M14 23L13 16.5H21.5L22 15.5V13L19 4.5L18 4H7.5H3V15.5L3.5 16.5H7L13 23H14Z" fill="#27374D"/>
<path d="M6.79961 3.25V17.1167L12.4246 23.5625C12.6513 23.8153 12.9195 23.9642 13.2293 24.0094C13.5391 24.0545 13.8375 23.9868 14.1246 23.8063C14.4079 23.6257 14.6204 23.3774 14.7621 23.0615C14.9038 22.7455 14.9388 22.416 14.8671 22.0729L13.8996 17.1167H21.3746C21.7746 17.1167 22.1246 16.9542 22.4246 16.6292C22.7246 16.3042 22.8746 15.925 22.8746 15.4917V13.2752C22.8746 13.1459 22.8871 13.0135 22.9121 12.8781C22.9371 12.7427 22.9246 12.6118 22.8746 12.4854L19.7246 4.63125C19.5766 4.24757 19.33 3.92144 18.9847 3.65287C18.6395 3.38429 18.2778 3.25 17.8996 3.25H6.79961ZM8.29961 16.4396V4.875H18.2246L21.3746 12.9729V15.4917H12.0496L13.3746 22.2354L8.29961 16.4396ZM3.47461 3.25C3.06211 3.25 2.70898 3.40912 2.41523 3.72734C2.12148 4.04557 1.97461 4.42813 1.97461 4.875V15.4917C1.97461 15.9385 2.12148 16.3211 2.41523 16.6393C2.70898 16.9576 3.06211 17.1167 3.47461 17.1167H6.79961V15.4917H3.47461V4.875H6.79961V3.25H3.47461Z" fill="black"/>
</svg>
