<svg width="24" height="26" viewBox="0 0 24 26" fill="none" xmlns="http://www.w3.org/2000/svg">
<path d="M14 3L13 9.5H21.5L22 10.5V13L19 21.5L18 22H7.5H3V10.5L3.5 9.5H7L13 3H14Z" fill="#27374D"/>
<path d="M6.79961 22.75V8.88333L12.4246 2.4375C12.6513 2.18472 12.9195 2.03576 13.2293 1.99062C13.5391 1.94548 13.8375 2.01319 14.1246 2.19375C14.4079 2.3743 14.6204 2.62257 14.7621 2.93854C14.9038 3.25451 14.9388 3.58403 14.8671 3.92708L13.8996 8.88333H21.3746C21.7746 8.88333 22.1246 9.04583 22.4246 9.37083C22.7246 9.69583 22.8746 10.075 22.8746 10.5083V12.7248C22.8746 12.8541 22.8871 12.9865 22.9121 13.1219C22.9371 13.2573 22.9246 13.3882 22.8746 13.5146L19.7246 21.3687C19.5766 21.7524 19.33 22.0786 18.9847 22.3471C18.6395 22.6157 18.2778 22.75 17.8996 22.75H6.79961ZM8.29961 9.56042V21.125H18.2246L21.3746 13.0271V10.5083H12.0496L13.3746 3.76458L8.29961 9.56042ZM3.47461 22.75C3.06211 22.75 2.70898 22.5909 2.41523 22.2727C2.12148 21.9544 1.97461 21.5719 1.97461 21.125V10.5083C1.97461 10.0615 2.12148 9.6789 2.41523 9.36068C2.70898 9.04245 3.06211 8.88333 3.47461 8.88333H6.79961V10.5083H3.47461V21.125H6.79961V22.75H3.47461Z" fill="black"/>
</svg>
