<svg width="70" height="25" viewBox="0 0 70 25" fill="none" xmlns="http://www.w3.org/2000/svg">
<rect width="70" height="25" rx="10" fill="#BBDEFB"/>
<path d="M18.0144 9.008C18.2224 9.112 18.3424 9.276 18.3744 9.5C18.4144 9.724 18.3584 9.928 18.2064 10.112C18.1024 10.256 17.9664 10.336 17.7984 10.352C17.6384 10.368 17.4744 10.336 17.3064 10.256C17.1144 10.168 16.9104 10.1 16.6944 10.052C16.4864 10.004 16.2664 9.98 16.0344 9.98C15.6024 9.98 15.2144 10.048 14.8704 10.184C14.5344 10.32 14.2464 10.516 14.0064 10.772C13.7664 11.02 13.5824 11.316 13.4544 11.66C13.3344 12.004 13.2744 12.384 13.2744 12.8C13.2744 13.288 13.3424 13.712 13.4784 14.072C13.6224 14.432 13.8184 14.732 14.0664 14.972C14.3144 15.212 14.6064 15.392 14.9424 15.512C15.2784 15.624 15.6424 15.68 16.0344 15.68C16.2504 15.68 16.4664 15.66 16.6824 15.62C16.8984 15.58 17.1064 15.508 17.3064 15.404C17.4744 15.324 17.6384 15.296 17.7984 15.32C17.9664 15.344 18.1064 15.428 18.2184 15.572C18.3784 15.772 18.4344 15.98 18.3864 16.196C18.3464 16.404 18.2264 16.556 18.0264 16.652C17.8184 16.756 17.6024 16.844 17.3784 16.916C17.1624 16.98 16.9424 17.028 16.7184 17.06C16.4944 17.1 16.2664 17.12 16.0344 17.12C15.4584 17.12 14.9104 17.028 14.3904 16.844C13.8784 16.66 13.4184 16.388 13.0104 16.028C12.6104 15.668 12.2944 15.22 12.0624 14.684C11.8304 14.14 11.7144 13.512 11.7144 12.8C11.7144 12.184 11.8184 11.616 12.0264 11.096C12.2424 10.576 12.5424 10.128 12.9264 9.752C13.3184 9.368 13.7784 9.072 14.3064 8.864C14.8344 8.648 15.4104 8.54 16.0344 8.54C16.3864 8.54 16.7304 8.58 17.0664 8.66C17.4024 8.74 17.7184 8.856 18.0144 9.008ZM25.7658 13.796C25.7658 14.452 25.6178 15.032 25.3218 15.536C25.0338 16.032 24.6418 16.42 24.1458 16.7C23.6578 16.98 23.1098 17.12 22.5018 17.12C21.8938 17.12 21.3418 16.98 20.8458 16.7C20.3578 16.42 19.9658 16.032 19.6698 15.536C19.3818 15.032 19.2378 14.452 19.2378 13.796C19.2378 13.14 19.3818 12.564 19.6698 12.068C19.9658 11.564 20.3578 11.172 20.8458 10.892C21.3418 10.604 21.8938 10.46 22.5018 10.46C23.1098 10.46 23.6578 10.604 24.1458 10.892C24.6418 11.172 25.0338 11.564 25.3218 12.068C25.6178 12.564 25.7658 13.14 25.7658 13.796ZM24.3258 13.796C24.3258 13.388 24.2418 13.036 24.0738 12.74C23.9138 12.436 23.6938 12.2 23.4138 12.032C23.1418 11.864 22.8378 11.78 22.5018 11.78C22.1658 11.78 21.8578 11.864 21.5778 12.032C21.3058 12.2 21.0858 12.436 20.9178 12.74C20.7578 13.036 20.6778 13.388 20.6778 13.796C20.6778 14.196 20.7578 14.548 20.9178 14.852C21.0858 15.148 21.3058 15.38 21.5778 15.548C21.8578 15.716 22.1658 15.8 22.5018 15.8C22.8378 15.8 23.1418 15.716 23.4138 15.548C23.6938 15.38 23.9138 15.148 24.0738 14.852C24.2418 14.548 24.3258 14.196 24.3258 13.796ZM30.4581 10.46C31.0501 10.46 31.4981 10.584 31.8021 10.832C32.1141 11.08 32.3261 11.412 32.4381 11.828C32.5581 12.236 32.6181 12.692 32.6181 13.196V16.268C32.6181 16.476 32.5501 16.652 32.4141 16.796C32.2781 16.932 32.1061 17 31.8981 17C31.6901 17 31.5181 16.932 31.3821 16.796C31.2461 16.652 31.1781 16.476 31.1781 16.268V13.196C31.1781 12.932 31.1421 12.696 31.0701 12.488C31.0061 12.272 30.8861 12.1 30.7101 11.972C30.5341 11.844 30.2821 11.78 29.9541 11.78C29.6341 11.78 29.3621 11.844 29.1381 11.972C28.9221 12.1 28.7541 12.272 28.6341 12.488C28.5221 12.696 28.4661 12.932 28.4661 13.196V16.268C28.4661 16.476 28.3981 16.652 28.2621 16.796C28.1261 16.932 27.9541 17 27.7461 17C27.5381 17 27.3661 16.932 27.2301 16.796C27.0941 16.652 27.0261 16.476 27.0261 16.268V11.312C27.0261 11.104 27.0941 10.932 27.2301 10.796C27.3661 10.652 27.5381 10.58 27.7461 10.58C27.9541 10.58 28.1261 10.652 28.2621 10.796C28.3981 10.932 28.4661 11.104 28.4661 11.312V11.828L28.2861 11.792C28.3581 11.656 28.4621 11.512 28.5981 11.36C28.7341 11.2 28.8941 11.052 29.0781 10.916C29.2621 10.78 29.4701 10.672 29.7021 10.592C29.9341 10.504 30.1861 10.46 30.4581 10.46ZM37.6065 10.46C38.1985 10.46 38.6465 10.584 38.9505 10.832C39.2625 11.08 39.4745 11.412 39.5865 11.828C39.7065 12.236 39.7665 12.692 39.7665 13.196V16.268C39.7665 16.476 39.6985 16.652 39.5625 16.796C39.4265 16.932 39.2545 17 39.0465 17C38.8385 17 38.6665 16.932 38.5305 16.796C38.3945 16.652 38.3265 16.476 38.3265 16.268V13.196C38.3265 12.932 38.2905 12.696 38.2185 12.488C38.1545 12.272 38.0345 12.1 37.8585 11.972C37.6825 11.844 37.4305 11.78 37.1025 11.78C36.7825 11.78 36.5105 11.844 36.2865 11.972C36.0705 12.1 35.9025 12.272 35.7825 12.488C35.6705 12.696 35.6145 12.932 35.6145 13.196V16.268C35.6145 16.476 35.5465 16.652 35.4105 16.796C35.2745 16.932 35.1025 17 34.8945 17C34.6865 17 34.5145 16.932 34.3785 16.796C34.2425 16.652 34.1745 16.476 34.1745 16.268V11.312C34.1745 11.104 34.2425 10.932 34.3785 10.796C34.5145 10.652 34.6865 10.58 34.8945 10.58C35.1025 10.58 35.2745 10.652 35.4105 10.796C35.5465 10.932 35.6145 11.104 35.6145 11.312V11.828L35.4345 11.792C35.5065 11.656 35.6105 11.512 35.7465 11.36C35.8825 11.2 36.0425 11.052 36.2265 10.916C36.4105 10.78 36.6185 10.672 36.8505 10.592C37.0825 10.504 37.3345 10.46 37.6065 10.46ZM44.347 17.12C43.667 17.12 43.075 16.98 42.571 16.7C42.075 16.412 41.691 16.024 41.419 15.536C41.155 15.048 41.023 14.496 41.023 13.88C41.023 13.16 41.167 12.548 41.455 12.044C41.751 11.532 42.135 11.14 42.607 10.868C43.079 10.596 43.579 10.46 44.107 10.46C44.515 10.46 44.899 10.544 45.259 10.712C45.627 10.88 45.951 11.112 46.231 11.408C46.511 11.696 46.731 12.032 46.891 12.416C47.059 12.8 47.143 13.208 47.143 13.64C47.135 13.832 47.059 13.988 46.915 14.108C46.771 14.228 46.603 14.288 46.411 14.288H41.827L41.467 13.088H45.871L45.607 13.328V13.004C45.591 12.772 45.507 12.564 45.355 12.38C45.211 12.196 45.027 12.052 44.803 11.948C44.587 11.836 44.355 11.78 44.107 11.78C43.867 11.78 43.643 11.812 43.435 11.876C43.227 11.94 43.047 12.048 42.895 12.2C42.743 12.352 42.623 12.556 42.535 12.812C42.447 13.068 42.403 13.392 42.403 13.784C42.403 14.216 42.491 14.584 42.667 14.888C42.851 15.184 43.083 15.412 43.363 15.572C43.651 15.724 43.955 15.8 44.275 15.8C44.571 15.8 44.807 15.776 44.983 15.728C45.159 15.68 45.299 15.624 45.403 15.56C45.515 15.488 45.615 15.428 45.703 15.38C45.847 15.308 45.983 15.272 46.111 15.272C46.287 15.272 46.431 15.332 46.543 15.452C46.663 15.572 46.723 15.712 46.723 15.872C46.723 16.088 46.611 16.284 46.387 16.46C46.179 16.636 45.887 16.792 45.511 16.928C45.135 17.056 44.747 17.12 44.347 17.12ZM51.2571 10.46C51.7131 10.46 52.1091 10.508 52.4451 10.604C52.7891 10.7 53.0531 10.836 53.2371 11.012C53.4291 11.18 53.5251 11.384 53.5251 11.624C53.5251 11.784 53.4771 11.936 53.3811 12.08C53.2851 12.216 53.1451 12.284 52.9611 12.284C52.8331 12.284 52.7251 12.268 52.6371 12.236C52.5571 12.196 52.4851 12.148 52.4211 12.092C52.3571 12.036 52.2811 11.984 52.1931 11.936C52.1131 11.888 51.9891 11.852 51.8211 11.828C51.6611 11.796 51.5411 11.78 51.4611 11.78C51.0531 11.78 50.7051 11.868 50.4171 12.044C50.1371 12.22 49.9211 12.46 49.7691 12.764C49.6171 13.06 49.5411 13.404 49.5411 13.796C49.5411 14.18 49.6171 14.524 49.7691 14.828C49.9291 15.124 50.1451 15.36 50.4171 15.536C50.6971 15.712 51.0171 15.8 51.3771 15.8C51.5771 15.8 51.7491 15.788 51.8931 15.764C52.0371 15.74 52.1571 15.704 52.2531 15.656C52.3651 15.592 52.4651 15.524 52.5531 15.452C52.6411 15.38 52.7731 15.344 52.9491 15.344C53.1571 15.344 53.3171 15.412 53.4291 15.548C53.5411 15.676 53.5971 15.836 53.5971 16.028C53.5971 16.228 53.4851 16.412 53.2611 16.58C53.0371 16.74 52.7411 16.872 52.3731 16.976C52.0131 17.072 51.6211 17.12 51.1971 17.12C50.5651 17.12 50.0171 16.976 49.5531 16.688C49.0891 16.392 48.7291 15.992 48.4731 15.488C48.2251 14.984 48.1011 14.42 48.1011 13.796C48.1011 13.14 48.2331 12.564 48.4971 12.068C48.7691 11.564 49.1411 11.172 49.6131 10.892C50.0931 10.604 50.6411 10.46 51.2571 10.46ZM54.7075 10.7H57.5515C57.7435 10.7 57.9035 10.764 58.0315 10.892C58.1595 11.02 58.2235 11.18 58.2235 11.372C58.2235 11.556 58.1595 11.712 58.0315 11.84C57.9035 11.96 57.7435 12.02 57.5515 12.02H54.7075C54.5155 12.02 54.3555 11.956 54.2275 11.828C54.0995 11.7 54.0355 11.54 54.0355 11.348C54.0355 11.164 54.0995 11.012 54.2275 10.892C54.3555 10.764 54.5155 10.7 54.7075 10.7ZM55.9915 9.2C56.1995 9.2 56.3675 9.272 56.4955 9.416C56.6315 9.552 56.6995 9.724 56.6995 9.932V15.272C56.6995 15.384 56.7195 15.476 56.7595 15.548C56.8075 15.62 56.8675 15.672 56.9395 15.704C57.0195 15.736 57.1035 15.752 57.1915 15.752C57.2875 15.752 57.3755 15.736 57.4555 15.704C57.5355 15.664 57.6275 15.644 57.7315 15.644C57.8435 15.644 57.9435 15.696 58.0315 15.8C58.1275 15.904 58.1755 16.048 58.1755 16.232C58.1755 16.456 58.0515 16.64 57.8035 16.784C57.5635 16.928 57.3035 17 57.0235 17C56.8555 17 56.6675 16.988 56.4595 16.964C56.2595 16.932 56.0675 16.864 55.8835 16.76C55.7075 16.648 55.5595 16.48 55.4395 16.256C55.3195 16.032 55.2595 15.724 55.2595 15.332V9.932C55.2595 9.724 55.3275 9.552 55.4635 9.416C55.6075 9.272 55.7835 9.2 55.9915 9.2Z" fill="#068FFF"/>
</svg>
