<svg width="40" height="40" viewBox="0 0 40 40" fill="none" xmlns="http://www.w3.org/2000/svg">
<path d="M10.2327 35.1413C8.86471 35.1413 7.79004 34.0666 7.79004 32.6986V7.30131C7.79004 5.93331 8.86471 4.85864 10.2327 4.85864H25.2754C25.8127 4.85864 26.3007 5.05464 26.6434 5.44531L31.6247 10.4266C32.0154 10.8173 32.2114 11.3053 32.2114 11.7946V32.6986C32.2114 34.0666 31.1367 35.1413 29.7687 35.1413H10.2327Z" fill="white"/>
<path d="M25.2751 5.348C25.6658 5.348 26.0564 5.49467 26.3004 5.788L31.2818 10.7693C31.5751 11.0627 31.7218 11.404 31.7218 11.7947V32.6987C31.7218 33.7733 30.8431 34.652 29.7684 34.652H10.2324C9.15776 34.652 8.27909 33.7733 8.27909 32.6987V7.30133C8.27909 6.22667 9.15776 5.348 10.2324 5.348H25.2751ZM25.2751 4.37067H10.2324C8.62042 4.37067 7.30176 5.68933 7.30176 7.30133V32.6987C7.30176 34.3107 8.62042 35.6293 10.2324 35.6293H29.7684C31.3804 35.6293 32.6991 34.3107 32.6991 32.6987V11.7947C32.6991 11.16 32.4551 10.5253 31.9671 10.0853L26.9858 5.104C26.4964 4.61467 25.9098 4.37067 25.2751 4.37067Z" fill="#FF2116"/>
<path d="M25.9954 18.4613C25.8247 18.2787 25.5434 18.132 25.1767 18.0307C24.8101 17.9307 24.3581 17.8747 23.8461 17.8747C23.5527 17.8747 23.2421 17.8933 22.9154 17.9267C22.5887 17.96 22.2474 18.0093 21.8927 18.0707C21.6847 17.8747 21.4781 17.6613 21.2727 17.4293C21.0687 17.1973 20.8674 16.9467 20.6714 16.6787C20.5367 16.4827 20.4034 16.288 20.2754 16.092C20.1474 15.896 20.0247 15.7013 19.9154 15.5053C20.0981 14.932 20.2567 14.3693 20.3701 13.848C20.4834 13.3253 20.5501 12.844 20.5501 12.4293C20.5501 12.124 20.5007 11.7147 20.3367 11.3827C20.1714 11.0493 19.8914 10.7933 19.4274 10.7933C19.3047 10.7933 19.1767 10.8293 19.0634 10.8933C18.9501 10.9573 18.8527 11.0493 18.7914 11.1587C18.6087 11.488 18.5541 12.0373 18.6327 12.6973C18.7127 13.3573 18.9261 14.1253 19.2794 14.8947C19.1567 15.2613 19.0221 15.6333 18.8754 16.0213C18.7287 16.4093 18.5701 16.812 18.3994 17.24C18.2527 17.5947 18.0941 17.948 17.9261 18.296C17.7581 18.644 17.5807 18.9867 17.3981 19.3147C16.3967 19.7173 15.5727 20.1387 14.9834 20.5507C14.3941 20.9627 14.0407 21.3653 13.9794 21.732C13.9554 21.8547 13.9607 21.9693 13.9981 22.08C14.0341 22.1893 14.1021 22.2933 14.1994 22.3907C14.2607 22.44 14.3514 22.5067 14.4741 22.5613C14.5967 22.616 14.7487 22.6587 14.9327 22.6587C15.5061 22.6587 16.1167 22.2373 16.7034 21.5987C17.2901 20.9613 17.8514 20.1067 18.3274 19.2387C18.5954 19.1413 18.8701 19.0493 19.1514 18.964C19.4327 18.8787 19.7194 18.8 20.0127 18.7267C20.3301 18.6413 20.6354 18.568 20.9354 18.504C21.2341 18.44 21.5274 18.3853 21.8207 18.336C22.5167 18.9707 23.1701 19.3187 23.7287 19.508C24.2874 19.6973 24.7514 19.728 25.0687 19.728C25.4474 19.728 25.6874 19.6693 25.8474 19.576C26.0074 19.4827 26.0861 19.3547 26.1434 19.216C26.1941 19.0493 26.1941 18.8973 26.1634 18.768C26.1314 18.6413 26.0687 18.5347 25.9954 18.4613ZM18.9874 11.2813C19.0367 11.196 19.0967 11.1293 19.1674 11.0827C19.2381 11.0373 19.3167 11.012 19.4021 11.012C19.5727 11.012 19.7074 11.0853 19.7981 11.2293C19.8901 11.3733 19.9381 11.5867 19.9381 11.8667C19.9381 12.16 19.8887 12.5507 19.7981 13.008C19.7061 13.4667 19.5727 13.9907 19.4021 14.552C19.0607 13.7707 18.8887 13.0693 18.8381 12.504C18.7861 11.9413 18.8527 11.5133 18.9874 11.2813ZM14.2007 21.7587C14.2621 21.4533 14.5794 21.1053 15.0981 20.7427C15.6167 20.3787 16.3381 20.0013 17.2047 19.6347C16.7167 20.4653 16.2274 21.136 15.7887 21.6C15.3487 22.064 14.9581 22.32 14.6647 22.32C14.6034 22.32 14.5487 22.308 14.4967 22.2867C14.4447 22.2653 14.3967 22.2347 14.3474 22.1987C14.2861 22.1373 14.2434 22.064 14.2194 21.988C14.1941 21.9107 14.1887 21.832 14.2007 21.7587ZM21.6007 18.12C21.3447 18.1693 21.0754 18.224 20.8007 18.284C20.5261 18.3453 20.2461 18.412 19.9647 18.4853C19.7207 18.5467 19.4767 18.6133 19.2354 18.6867C18.9941 18.76 18.7567 18.8387 18.5247 18.924C18.6594 18.668 18.7874 18.4173 18.9034 18.1733C19.0194 17.9293 19.1234 17.6907 19.2087 17.4587C19.3181 17.1907 19.4287 16.916 19.5354 16.6373C19.6421 16.36 19.7461 16.0787 19.8434 15.7973C19.9407 15.968 20.0447 16.1387 20.1554 16.3107C20.2647 16.4813 20.3807 16.652 20.5034 16.824C20.6741 17.056 20.8514 17.2827 21.0354 17.4987C21.2154 17.716 21.4047 17.924 21.6007 18.12ZM22.0887 18.2667C22.6754 18.1573 23.2247 18.108 23.6847 18.0987C24.1461 18.0893 24.5181 18.12 24.7501 18.1693C24.9701 18.2187 25.1407 18.316 25.2474 18.4507C25.3541 18.5853 25.3967 18.756 25.3607 18.9507C25.3247 19.1587 25.1834 19.3107 24.9847 19.396C24.7861 19.4813 24.5301 19.5 24.2607 19.4387C23.8207 19.3293 23.4247 19.1573 23.0647 18.9533C22.7047 18.7493 22.3821 18.5107 22.0887 18.2667Z" fill="#FF2116"/>
<path d="M15.0228 26.7962C15.0228 26.7895 15.0228 26.7829 15.0242 26.7775C15.0255 26.7722 15.0268 26.7669 15.0295 26.7629C15.0322 26.7589 15.0362 26.7549 15.0428 26.7535C15.0482 26.7509 15.0548 26.7495 15.0642 26.7495C15.1308 26.7455 15.2042 26.7429 15.2855 26.7402C15.3655 26.7375 15.4522 26.7349 15.5428 26.7335C15.6335 26.7322 15.7295 26.7309 15.8282 26.7295C15.9268 26.7282 16.0268 26.7282 16.1295 26.7282C16.4162 26.7282 16.6628 26.7669 16.8708 26.8389C17.0788 26.9109 17.2495 27.0149 17.3828 27.1429C17.5175 27.2722 17.6148 27.4255 17.6802 27.5975C17.7442 27.7695 17.7762 27.9602 17.7762 28.1615C17.7762 28.4242 17.7282 28.6495 17.6428 28.8402C17.5575 29.0295 17.4335 29.1855 17.2802 29.3082C17.1268 29.4309 16.9442 29.5202 16.7415 29.5789C16.5388 29.6375 16.3162 29.6655 16.0815 29.6655C16.0415 29.6655 16.0095 29.6655 15.9802 29.6642C15.9508 29.6642 15.9268 29.6629 15.9028 29.6615C15.8788 29.6602 15.8575 29.6602 15.8348 29.6589C15.8122 29.6575 15.7882 29.6575 15.7602 29.6575V30.0562V30.4549V30.8535V31.2522C15.7602 31.2615 15.7588 31.2682 15.7575 31.2735C15.7562 31.2789 15.7535 31.2842 15.7495 31.2882C15.7455 31.2922 15.7402 31.2949 15.7348 31.2962C15.7295 31.2975 15.7215 31.2989 15.7135 31.2989H15.5522H15.3908H15.2295H15.0682C15.0602 31.2989 15.0522 31.2975 15.0468 31.2962C15.0415 31.2949 15.0362 31.2922 15.0322 31.2882C15.0282 31.2842 15.0255 31.2789 15.0242 31.2735C15.0228 31.2669 15.0215 31.2602 15.0215 31.2522V30.1389V29.0255V27.9122C15.0228 27.9095 15.0228 26.7962 15.0228 26.7962ZM15.7602 28.9949C15.7842 28.9962 15.8068 28.9975 15.8295 28.9989C15.8522 29.0002 15.8762 29.0002 15.9015 29.0002C15.9268 29.0002 15.9548 29.0002 15.9868 29.0015C16.0188 29.0015 16.0535 29.0015 16.0948 29.0015C16.2162 29.0015 16.3348 28.9909 16.4455 28.9642C16.5561 28.9375 16.6575 28.8962 16.7442 28.8335C16.8308 28.7709 16.9028 28.6882 16.9522 28.5802C17.0015 28.4722 17.0308 28.3389 17.0308 28.1749C17.0308 28.0429 17.0108 27.9282 16.9722 27.8295C16.9335 27.7309 16.8762 27.6482 16.8015 27.5815C16.7268 27.5162 16.6348 27.4655 16.5268 27.4322C16.4188 27.3989 16.2948 27.3829 16.1562 27.3829C16.1148 27.3829 16.0748 27.3829 16.0362 27.3842C15.9975 27.3855 15.9602 27.3855 15.9255 27.3869C15.8908 27.3882 15.8588 27.3895 15.8308 27.3909C15.8028 27.3922 15.7788 27.3949 15.7602 27.3962V27.7962V28.1962V28.5962V28.9949Z" fill="#2C2C2C"/>
<path d="M18.5134 26.8027C18.5134 26.7934 18.5134 26.7867 18.5147 26.7814C18.5161 26.7747 18.5187 26.7707 18.5214 26.7654C18.5254 26.7614 18.5294 26.7574 18.5361 26.7547C18.5427 26.752 18.5507 26.7494 18.5614 26.748C18.6014 26.7467 18.6587 26.744 18.7294 26.7414C18.8014 26.7387 18.8867 26.7374 18.9814 26.7347C19.0761 26.732 19.1814 26.7307 19.2921 26.7294C19.4014 26.728 19.5174 26.7267 19.6334 26.7267C19.9801 26.7267 20.2827 26.7827 20.5427 26.8867C20.8027 26.9907 21.0187 27.144 21.1907 27.3374C21.3641 27.5307 21.4934 27.7667 21.5801 28.0347C21.6667 28.3027 21.7094 28.604 21.7094 28.9334C21.7094 29.3894 21.6347 29.7667 21.5081 30.0747C21.3814 30.3827 21.2027 30.6227 20.9961 30.8067C20.7894 30.9907 20.5534 31.116 20.3107 31.196C20.0694 31.276 19.8214 31.3107 19.5907 31.3107C19.5041 31.3107 19.4067 31.3107 19.3081 31.3094C19.2094 31.3094 19.1067 31.308 19.0107 31.3067C18.9134 31.3054 18.8227 31.304 18.7441 31.3027C18.6654 31.3014 18.5987 31.2987 18.5534 31.2974C18.5467 31.2974 18.5401 31.296 18.5347 31.2934C18.5294 31.2907 18.5254 31.288 18.5214 31.2827C18.5174 31.2774 18.5161 31.272 18.5134 31.2654C18.5121 31.2587 18.5107 31.2507 18.5107 31.2427V30.132V29.0214V27.9107L18.5134 26.8027ZM19.2587 30.6414C19.2881 30.6427 19.3161 30.6454 19.3441 30.6467C19.3721 30.648 19.4001 30.6494 19.4281 30.6507C19.4561 30.652 19.4841 30.6534 19.5147 30.6534C19.5441 30.6534 19.5747 30.6547 19.6081 30.6547C19.8001 30.6547 19.9787 30.6214 20.1387 30.552C20.3001 30.4827 20.4427 30.38 20.5614 30.24C20.6801 30.1 20.7761 29.924 20.8414 29.7094C20.9067 29.496 20.9441 29.244 20.9454 28.9534C20.9467 28.6707 20.9121 28.4294 20.8467 28.2294C20.7814 28.0294 20.6854 27.868 20.5667 27.7427C20.4481 27.6174 20.3067 27.5267 20.1481 27.468C19.9907 27.4094 19.8161 27.3827 19.6334 27.3827C19.5974 27.3827 19.5641 27.3827 19.5307 27.384C19.4974 27.3854 19.4667 27.3854 19.4361 27.3867C19.4054 27.388 19.3761 27.3894 19.3467 27.3907C19.3174 27.392 19.2881 27.3947 19.2587 27.396V28.2067V29.0174V29.828C19.2587 29.8294 19.2587 30.6414 19.2587 30.6414Z" fill="#2C2C2C"/>
<path d="M23.2753 31.2427C23.2753 31.2533 23.2739 31.2613 23.2726 31.268C23.2712 31.2747 23.2686 31.2813 23.2646 31.2853C23.2606 31.2893 23.2552 31.292 23.2499 31.2947C23.2446 31.296 23.2366 31.2973 23.2286 31.2973H23.0659H22.9033H22.7406H22.5779C22.5699 31.2973 22.5619 31.296 22.5566 31.2947C22.5513 31.2933 22.5459 31.2893 22.5419 31.2853C22.5379 31.2813 22.5353 31.276 22.5339 31.268C22.5326 31.2613 22.5312 31.252 22.5312 31.2427V30.1293V29.016V27.9027V26.7893C22.5312 26.7813 22.5326 26.7733 22.5339 26.768C22.5353 26.7627 22.5379 26.7573 22.5419 26.7533C22.5459 26.7493 22.5513 26.7467 22.5566 26.7453C22.5619 26.744 22.5699 26.7427 22.5779 26.7427H23.1459H23.7139H24.2819H24.8499C24.8606 26.7427 24.8686 26.744 24.8753 26.7453C24.8819 26.7467 24.8859 26.7493 24.8899 26.7533C24.8939 26.7573 24.8966 26.7627 24.8993 26.768C24.9019 26.7733 24.9033 26.7813 24.9046 26.7893L24.9219 26.9333L24.9392 27.0773L24.9566 27.2213L24.9739 27.3653C24.9753 27.376 24.9753 27.384 24.9739 27.3907C24.9726 27.3973 24.9686 27.404 24.9646 27.408C24.9606 27.412 24.9539 27.4147 24.9459 27.4173C24.9379 27.4187 24.9299 27.42 24.9193 27.42H24.5073H24.0966H23.6846H23.2726V27.744V28.068V28.392V28.716H23.6419H24.0113H24.3806H24.7499C24.7592 28.716 24.7659 28.716 24.7713 28.7173C24.7779 28.7187 24.7819 28.7213 24.7859 28.724C24.7899 28.728 24.7926 28.732 24.7939 28.7387C24.7953 28.7453 24.7966 28.7533 24.7966 28.764V28.908V29.052V29.196V29.34C24.7966 29.3507 24.7953 29.3587 24.7939 29.3653C24.7926 29.372 24.7899 29.376 24.7859 29.38C24.7819 29.384 24.7766 29.3853 24.7713 29.3867C24.7646 29.388 24.7579 29.388 24.7499 29.388H24.3819H24.0126H23.6433H23.2739V29.852V30.316V30.78L23.2753 31.2427Z" fill="#2C2C2C"/>
</svg>
