<svg width="24" height="26" viewBox="0 0 24 26" fill="none" xmlns="http://www.w3.org/2000/svg">
<g id="thumb_down 1">
<path id="Vector" d="M2.6252 17.1167C2.2252 17.1167 1.8752 16.9542 1.5752 16.6292C1.2752 16.3042 1.1252 15.925 1.1252 15.4917V13.2752C1.1252 13.1459 1.1127 13.0135 1.0877 12.8781C1.0627 12.7427 1.0752 12.6118 1.1252 12.4854L4.2752 4.63125C4.42316 4.24757 4.66979 3.92144 5.01507 3.65286C5.36034 3.38429 5.72205 3.25 6.1002 3.25H17.2002V17.1167L11.5752 23.5625C11.3485 23.8153 11.0803 23.9642 10.7705 24.0094C10.4608 24.0545 10.1623 23.9868 9.8752 23.8063C9.59186 23.6257 9.37936 23.3774 9.2377 23.0615C9.09603 22.7455 9.06103 22.416 9.1327 22.0729L10.1002 17.1167H2.6252ZM15.7002 16.4396V4.875H5.7752L2.6252 12.9729V15.4917H11.9502L10.6252 22.2354L15.7002 16.4396ZM20.5252 3.25C20.9377 3.25 21.2908 3.40911 21.5846 3.72734C21.8783 4.04557 22.0252 4.42813 22.0252 4.875V15.4917C22.0252 15.9385 21.8783 16.3211 21.5846 16.6393C21.2908 16.9576 20.9377 17.1167 20.5252 17.1167H17.2002V15.4917H20.5252V4.875H17.2002V3.25H20.5252Z" fill="#27374D"/>
</g>
</svg>
